<?xml version="1.0" encoding="UTF-8" standalone="no"?>
<svg
   xmlns:dc="http://purl.org/dc/elements/1.1/"
   xmlns:cc="http://creativecommons.org/ns#"
   xmlns:rdf="http://www.w3.org/1999/02/22-rdf-syntax-ns#"
   xmlns:svg="http://www.w3.org/2000/svg"
   xmlns="http://www.w3.org/2000/svg"
   xmlns:xlink="http://www.w3.org/1999/xlink"
   xmlns:sodipodi="http://sodipodi.sourceforge.net/DTD/sodipodi-0.dtd"
   xmlns:inkscape="http://www.inkscape.org/namespaces/inkscape"
   viewBox="0 0 837.82025 415.01995"
   version="1.1"
   id="svg33"
   sodipodi:docname="player-symbols.svg"
   inkscape:version="0.92.0 r15299"
   width="837.82025"
   height="415.01996"
   inkscape:export-filename="C:\Users\User\workspace\MazeRunner\src\assets\images\money.png"
   inkscape:export-xdpi="11.67"
   inkscape:export-ydpi="11.67">
  <metadata
     id="metadata37">
    <rdf:RDF>
      <cc:Work
         rdf:about="">
        <dc:format>image/svg+xml</dc:format>
        <dc:type
           rdf:resource="http://purl.org/dc/dcmitype/StillImage" />
        <dc:title></dc:title>
      </cc:Work>
    </rdf:RDF>
  </metadata>
  <sodipodi:namedview
     pagecolor="#ffffff"
     bordercolor="#666666"
     borderopacity="1"
     objecttolerance="10"
     gridtolerance="10"
     guidetolerance="10"
     inkscape:pageopacity="0"
     inkscape:pageshadow="2"
     inkscape:window-width="1366"
     inkscape:window-height="705"
     id="namedview35"
     showgrid="false"
     inkscape:zoom="0.5"
     inkscape:cx="493.98309"
     inkscape:cy="296.97128"
     inkscape:window-x="-8"
     inkscape:window-y="-8"
     inkscape:window-maximized="1"
     inkscape:current-layer="svg33"
     fit-margin-top="0"
     fit-margin-left="0"
     fit-margin-right="0"
     fit-margin-bottom="0" />
  <defs
     id="defs13">
    <linearGradient
       id="linearGradient4632"
       inkscape:collect="always">
      <stop
         id="stop4628"
         offset="0"
         style="stop-color:#180d06;stop-opacity:1" />
      <stop
         id="stop4630"
         offset="1"
         style="stop-color:#784421;stop-opacity:0;" />
    </linearGradient>
    <linearGradient
       id="linearGradient4620"
       inkscape:collect="always">
      <stop
         id="stop4616"
         offset="0"
         style="stop-color:#4e2c15;stop-opacity:1" />
      <stop
         id="stop4618"
         offset="1"
         style="stop-color:#784421;stop-opacity:0;" />
    </linearGradient>
    <linearGradient
       inkscape:collect="always"
       id="linearGradient4522">
      <stop
         style="stop-color:#784421;stop-opacity:1;"
         offset="0"
         id="stop4518" />
      <stop
         style="stop-color:#784421;stop-opacity:0;"
         offset="1"
         id="stop4520" />
    </linearGradient>
    <filter
       id="b">
      <feGaussianBlur
         stdDeviation="2.92164"
         id="feGaussianBlur2" />
    </filter>
    <filter
       id="c">
      <feGaussianBlur
         stdDeviation="2.39437"
         id="feGaussianBlur5" />
    </filter>
    <linearGradient
       id="a"
       x1="147.19"
       x2="278.67999"
       y1="182.94"
       y2="184.33"
       gradientUnits="userSpaceOnUse">
      <stop
         stop-color="#fdd99b"
         offset="0"
         id="stop8" />
      <stop
         stop-color="#fdd99b"
         stop-opacity="0"
         offset="1"
         id="stop10" />
    </linearGradient>
    <linearGradient
       inkscape:collect="always"
       xlink:href="#a"
       id="linearGradient4514"
       gradientUnits="userSpaceOnUse"
       x1="147.19"
       y1="182.94"
       x2="278.67999"
       y2="184.33" />
    <linearGradient
       inkscape:collect="always"
       xlink:href="#linearGradient4522"
       id="linearGradient4524"
       x1="93.101799"
       y1="181.54001"
       x2="202.50444"
       y2="181.89299"
       gradientUnits="userSpaceOnUse" />
    <filter
       id="b-7">
      <feGaussianBlur
         stdDeviation="2.92164"
         id="feGaussianBlur2-3" />
    </filter>
    <linearGradient
       inkscape:collect="always"
       xlink:href="#linearGradient4620"
       id="linearGradient4583"
       gradientUnits="userSpaceOnUse"
       x1="148.46097"
       y1="184.03598"
       x2="202.50444"
       y2="181.89299" />
    <linearGradient
       inkscape:collect="always"
       xlink:href="#linearGradient4632"
       id="linearGradient4611"
       x1="132.37035"
       y1="134.93964"
       x2="180.85445"
       y2="123.33917"
       gradientUnits="userSpaceOnUse"
       gradientTransform="translate(0.36275505,-8.6127925)" />
    <linearGradient
       gradientTransform="matrix(8.2332538,0,0,8.2332538,-791.19056,-3298.2696)"
       inkscape:collect="always"
       xlink:href="#linearGradient5044"
       id="linearGradient5050"
       x1="191.71983"
       y1="404.28452"
       x2="188.38046"
       y2="414.61029"
       gradientUnits="userSpaceOnUse" />
    <linearGradient
       inkscape:collect="always"
       id="linearGradient5044">
      <stop
         style="stop-color:#ffffff;stop-opacity:1"
         offset="0"
         id="stop5040" />
      <stop
         style="stop-color:#cc0000;stop-opacity:0;"
         offset="1"
         id="stop5042" />
    </linearGradient>
    <linearGradient
       gradientTransform="matrix(8.2332538,0,0,8.2332538,-959.4364,-3298.2154)"
       inkscape:collect="always"
       xlink:href="#linearGradient5044"
       id="linearGradient5050-9"
       x1="191.71983"
       y1="404.28452"
       x2="188.49026"
       y2="411.42621"
       gradientUnits="userSpaceOnUse" />
    <radialGradient
       inkscape:collect="always"
       xlink:href="#linearGradient5082"
       id="radialGradient5089"
       cx="161.70802"
       cy="428.62061"
       fx="161.70802"
       fy="428.62061"
       r="9.0232182"
       gradientTransform="matrix(1.2242002,-0.56359397,1.0735789,2.3319544,-494.08821,-476.4195)"
       gradientUnits="userSpaceOnUse" />
    <linearGradient
       inkscape:collect="always"
       id="linearGradient5082">
      <stop
         style="stop-color:#550000;stop-opacity:1"
         offset="0"
         id="stop5078" />
      <stop
         style="stop-color:#800000;stop-opacity:0"
         offset="1"
         id="stop5080" />
    </linearGradient>
  </defs>
  <g
     id="g4687"
     inkscape:export-xdpi="11.798435"
     inkscape:export-ydpi="11.798435">
    <path
       style="fill:#d9bb7a;stroke:#514830;stroke-width:20;stroke-miterlimit:4;stroke-dasharray:none;stroke-opacity:1"
       inkscape:connector-curvature="0"
       id="path15"
       d="m 117.76587,22.101231 c -17.09078,0.07619 -29.354002,1.4226 -29.354002,1.4226 0,0 -43.84288,16.758 -9.58448,17.135 27.201652,0.2997 66.690362,51.975006 88.576032,103.299999 -3.3256,-3.0378 -6.54963,-5.6234 -9.46966,-7.1128 -15.30849,-7.8073 -138.644583,80.763 -143.025242,155.32 -2.21701,37.786 33.873329,80.97 62.655899,88.845 32.569733,8.9113 0.55935,9.4454 3.4904,12.092 20.839963,18.815 48.591843,4.7495 79.678683,8.3737 63.23793,7.3724 80.14942,1.4298 93.75157,0 0,0 58.85903,10.47 79.67868,-8.3737 2.92595,-2.6483 -29.10847,-3.1803 3.46178,-12.092 28.78257,-7.8751 64.87273,-51.059 62.6559,-88.845 -4.3743,-74.554 -127.71057,-163.12 -143.02524,-155.32 -2.9293,1.4939 -6.13346,4.095 -9.46966,7.1451 21.88391,-51.330993 61.36997,-103.029999 88.57603,-103.329999 34.2584,-0.37747 -9.55533,-17.135 -9.55533,-17.135 0,0 -64.03104,-6.8914 -103.48442,9.8932 -5.87628,2.5001 -11.09828,4.32 -15.70681,5.7549 -4.61463,-1.436 -9.84856,-3.2501 -15.73596,-5.7549 -22.19126,-9.4414 -52.15467,-11.414 -74.12866,-11.316 z" />
    <path
       inkscape:connector-curvature="0"
       style="opacity:0.34145998;fill:url(#linearGradient4514);filter:url(#b)"
       id="path17"
       d="m 263.78,181.54 c 0,32.765 -34.734,59.327 -77.581,59.327 -42.847,0 -77.581,-26.562 -77.581,-59.327 0,-32.765 34.734,-59.327 77.581,-59.327 42.847,0 77.581,26.561 77.581,59.327 z"
       transform="matrix(-0.95323664,0,0,1.4405,483.59181,31.781502)" />
    <g
       transform="translate(0.36275505,-8.6127925)"
       id="g4614">
      <path
         transform="matrix(0.95323664,0,0,1.4405,-89.110802,44.770166)"
         d="m 263.78,181.54 c 0,32.765 -34.734,59.327 -77.581,59.327 -42.847,0 -77.581,-26.562 -77.581,-59.327 0,-32.765 34.734,-59.327 77.581,-59.327 42.847,0 77.581,26.561 77.581,59.327 z"
         id="path19"
         style="opacity:0.34145998;fill:url(#linearGradient4583);fill-opacity:1;filter:url(#b)"
         inkscape:connector-curvature="0" />
    </g>
    <path
       style="fill:none;stroke:#846c42;stroke-width:7.38042688"
       inkscape:connector-curvature="0"
       id="path21"
       d="m 153.9152,128.93123 c 31.74747,16.282 -17.45024,5.9182 -14.67258,15.033 6.62337,8.1402 17.35927,10.154 26.6152,7.9941 78.15869,-16.084 172.17081,-3.3415 124.99032,6.1017 16.74898,-52.732 -193.182113,24.173 -178.8213,27.731 11.46127,-4.4204 166.7568,-56.533 179.30706,-53.73 8.71099,-0.50148 10.24157,-17.656 1.40393,-19.458 -12.92209,-1.0152 -22.40058,10.582 -31.71303,18.875 7.29876,6.1231 -15.75715,29.647 -56.12022,50.88 -2.90635,2.6403 -5.61344,5.5727 -7.98527,8.8282" />
    <path
       style="fill:none;stroke:#4d4841;stroke-width:7.58300018;stroke-dasharray:7.583, 7.583;filter:url(#c)"
       inkscape:connector-curvature="0"
       id="path27"
       d="m 227.21,12.963 c 34.677,15.737 -19.061,5.7204 -16.026,14.531 7.2345,7.868 18.961,9.8146 29.071,7.7268 85.37,-15.547 188.05,-3.2298 136.52,5.8977 18.294,-50.969 -211,23.365 -195.32,26.804 12.519,-4.2726 182.14,-54.644 195.85,-51.934 9.5148,-0.48471 11.187,-17.066 1.5335,-18.808 -14.114,-0.98122 -24.468,10.228 -34.639,18.244 7.9722,5.9184 -17.211,28.656 -61.299,49.179 -3.1745,2.552 -6.1314,5.3864 -8.7221,8.5331"
       transform="matrix(0.91552405,0,0,1.0346,-54.103769,115.52123)" />
    <g
       style="font-size:239.44999695px;font-family:Sans;letter-spacing:0;word-spacing:0;opacity:0.57072999;stroke:none;stroke-width:1.03559995"
       id="g31"
       word-spacing="0"
       letter-spacing="0"
       font-size="239.45"
       transform="matrix(1.1402982,0,0,0.77456,-63.104451,-27.068769)">
      <path
         style="stroke:none"
         inkscape:connector-curvature="0"
         id="path29"
         d="m 227.95,495.48 v -21.045 c -10.523,-1.3251 -19.077,-3.6829 -25.663,-7.0735 -6.586,-3.3906 -12.276,-8.8662 -17.07,-16.427 -4.794,-7.5608 -7.5801,-16.797 -8.3596,-27.709 l 21.162,-3.9752 c 1.6368,11.302 4.5208,19.603 8.6519,24.903 5.9238,7.4827 13.017,11.653 21.279,12.51 v -66.994 c -8.6519,-1.6368 -17.499,-4.9884 -26.54,-10.055 -6.7033,-3.7413 -11.867,-8.9246 -15.492,-15.55 -3.625,-6.6254 -5.4367,-14.147 -5.4366,-22.565 -1e-5,-14.965 5.3002,-27.086 15.901,-36.361 7.0929,-6.2354 17.615,-10.055 31.568,-11.458 v -10.055 h 12.393 v 10.055 c 12.237,1.1694 21.941,4.7548 29.112,10.756 9.1974,7.6388 14.731,18.122 16.602,31.451 l -21.747,3.2737 c -1.2472,-8.262 -3.8389,-14.595 -7.775,-18.999 -3.9361,-4.404 -9.334,-7.3072 -16.193,-8.7103 v 60.68 c 10.6,2.6502 17.615,4.7158 21.045,6.1966 6.5473,2.884 11.886,6.3916 16.018,10.523 4.132,4.1314 7.3072,9.0417 9.5288,14.732 2.2216,5.6903 3.332,11.848 3.3322,18.473 -1.3e-4,14.576 -4.6378,26.735 -13.913,36.478 -9.2752,9.743 -21.279,14.965 -36.011,15.667 v 21.279 z m 0,-184.26 c -8.1842,1.2473 -14.634,4.521 -19.35,9.821 -4.716,5.3 -7.0735,11.575 -7.0735,18.824 -4e-5,7.171 2.007,13.173 6.0212,18.005 4.0142,4.832 10.815,8.691 20.402,11.575 z m 12.393,145.45 c 8.1841,-1.0133 14.946,-4.5598 20.285,-10.639 5.339,-6.0792 8.0087,-13.601 8.0088,-22.565 -10e-5,-7.6385 -1.8903,-13.777 -5.6705,-18.414 -3.7802,-4.637 -11.322,-8.7882 -22.623,-12.452 z" />
    </g>
    <path
       sodipodi:nodetypes="csccsccsscccscccccccccccccsccccscsccccsssscsccccscscsssscsscssssccssc"
       style="fill:#333333;fill-opacity:1;stroke:#7e704b;stroke-width:25;stroke-miterlimit:4;stroke-dasharray:none;stroke-opacity:1"
       inkscape:connector-curvature="0"
       id="path23"
       d="m 300.33887,25.440381 c -5.79244,0.86753 -11.71677,-0.34701 -17.54217,0 -4.74832,0.28285 -9.49288,0.63526 -14.2008,1.14449 -0.61501,0.06652 -1.05653,0.50212 -1.67068,0.57224 -1.09863,0.12543 -2.24554,-0.13649 -3.34137,0 -1.99441,0.24841 -3.88078,0.80769 -5.84738,1.14449 -1.37741,0.2359 -2.76395,0.47546 -4.1767,0.57224 -1.38533,0.0949 -2.78447,0 -4.17671,0 h -5.84738 c -2.92051,0 -4.27585,-0.09407 -7.51807,0.57225 -1.19274,0.24512 -2.1754,0.84496 -3.34138,1.14449 -1.07495,0.27615 -2.26639,0.2961 -3.34136,0.57224 -1.16596,0.29953 -2.22757,0.76299 -3.34135,1.14449 -0.55689,0.19075 -1.17259,0.31633 -1.67069,0.57225 -3.61309,2.47512 0.2213,0.08969 -3.34137,1.71673 -0.32764,0.14964 -0.55689,0.3815 -0.83534,0.57224 -0.27844,0.19074 -0.45332,0.50682 -0.83534,0.57224 -0.81039,0.13879 -1.69562,-0.13879 -2.50603,0 -0.20744,0.03553 -1.37768,1.04413 -1.67068,1.14449 -0.24905,0.0853 -0.55689,0 -0.83533,0 -0.27845,0.19075 -0.5077,0.42261 -0.83533,0.57224 -2.1897,1.00002 -1.45981,0.21389 -4.17671,1.14449 -0.35222,0.12064 -0.48314,0.4516 -0.83534,0.57224 -0.24905,0.0853 -0.5569,0 -0.83536,0 -0.55689,0.19075 -1.15261,0.33565 -1.67067,0.57225 -0.32765,0.14963 -0.48313,0.4516 -0.83534,0.57224 -0.24906,0.0853 -0.63845,-0.13488 -0.83535,0 -0.1969,0.13488 0.1969,0.43736 0,0.57224 -0.39378,0.26976 -1.2769,-0.26976 -1.67069,0 -0.19688,0.13488 0.12454,0.40163 0,0.57224 -0.17609,0.24128 -0.65922,0.33097 -0.83533,0.57224 -0.12453,0.17061 0,0.3815 0,0.57224 v 0.57225 0.57224 c 0,0.19075 -0.12453,0.40163 0,0.57224 0.17611,0.24128 0.65924,0.33097 0.83533,0.57224 0.12454,0.17061 -0.12452,0.40163 0,0.57224 0.17611,0.24128 0.65924,0.33097 0.83535,0.57224 0.12452,0.17061 -0.19689,0.43737 0,0.57225 0.19689,0.13488 0.63845,-0.13488 0.83534,0 0.19689,0.13488 -0.19689,0.43737 0,0.57224 0.19689,0.13487 0.5569,0 0.83535,0 h 1.67067 5.01205 c 1.1138,0 2.23439,0.08426 3.34136,0 1.41114,-0.10741 2.76274,-0.48419 4.17671,-0.57224 9.46437,-0.58941 0.43145,0.85648 10.85944,-0.57225 0.86342,-0.1183 1.66264,-0.39892 2.50601,-0.57224 1.94165,-0.39903 3.88872,-0.78668 5.84741,-1.14449 6.38822,-1.16699 6.30011,-1.18325 12.53011,-1.71673 2.50197,-0.21424 5.01204,-0.3815 7.51806,-0.57224 2.50601,-0.19074 5.00303,-0.44918 7.51808,-0.57224 1.38869,-0.06795 2.78447,0 4.1767,0 5.29049,0 34.37677,-7.52359 39.66725,-7.52359 h 8.35342 c 2.78446,0 5.57279,-0.10025 8.3534,0 2.51796,0.09078 5.00533,0.4288 7.51808,0.57224 0.83246,0.04753 1.81531,-0.469814 2.50601,0 l 2.5108,1.707843 c 0.98838,0.672291 7.73407,-1.438083 8.34864,-2.280083 0.55689,-0.76299 -0.27845,-0.57225 -0.83534,-0.57225 h -0.83533 c -0.27845,0 -0.83535,0.19075 -0.83535,0 0,-0.19075 1.1138,0 0.83535,0 h -3.34137 -8.35341 -1.67069 c -0.27844,0 -0.63845,-0.13488 -0.83534,0 -0.19689,0.13488 0,0.3815 0,0.57225" />
    <path
       style="fill:#333333;stroke:#7e704b;stroke-width:20;stroke-miterlimit:4;stroke-dasharray:none;stroke-opacity:1"
       inkscape:connector-curvature="0"
       id="path25"
       d="m 169.68172,23.732081 c -16.59266,-7.4616 -121.033583,-5.8316 -104.526603,7.4421 43.366843,3.017 125.211123,50.791 173.645753,30.167 52.35869,-13.799 -11.25637,-33.31 -34.67792,-23.787 -12.64918,-0.22677 -26.16565,-3.864 -34.43946,-13.822 z" />
    <path
       sodipodi:nodetypes="csscc"
       inkscape:connector-curvature="0"
       id="path4595"
       d="m 124.28692,57.27579 c 0,0 28.02856,9.682886 53.38015,15.541511 9.69506,2.240479 28.35979,64.881959 15.0885,67.610169 -8.93913,1.83763 -16.02116,-0.26102 -16.02116,-0.26102 -17.12317,-33.75598 -25.52887,-53.301882 -52.44749,-82.89066 z"
       style="fill:url(#linearGradient4611);fill-opacity:1;stroke:none;stroke-width:1;stroke-linecap:butt;stroke-linejoin:miter;stroke-miterlimit:4;stroke-dasharray:none;stroke-opacity:1" />
  </g>
  <g
     id="g4674"
     transform="translate(0,5.6568542)"
     inkscape:export-xdpi="11.798435"
     inkscape:export-ydpi="11.798435">
    <path
       inkscape:connector-curvature="0"
       id="path7344"
       d="M 667.6374,389.76126 C 658.98728,367.33092 649.63482,353.37512 614.34667,310.24047 566.70601,252.00673 543.05056,214.30025 527.37643,171.61148 505.64756,112.43192 510.02411,56.362235 538.58385,28.031945 c 7.22025,-7.162194 13.95513,-11.418621 23.64592,-14.943944 6.27085,-2.281267 8.13618,-2.51262 20.10601,-2.493353 12.30255,0.02471 13.80009,0.224694 22.1705,3.028844 25.64405,8.592229 47.64997,29.855924 58.26591,56.301388 4.10832,10.233941 7.8804,16.963289 9.50858,16.963289 0.88789,0 2.20464,-2.905995 3.84313,-8.481644 9.64056,-32.805714 36.32792,-59.096067 67.55206,-66.546999 10.83807,-2.5863892 25.93432,-2.1682332 35.15327,0.973737 23.35667,7.960408 40.37242,29.574598 46.81164,59.462304 2.71212,12.588222 2.45136,45.676763 -0.47507,60.299843 -10.34944,51.71398 -35.75239,100.29716 -83.77013,160.2103 -7.68519,9.58912 -20.47875,25.49239 -28.43018,35.3406 -21.63733,26.79916 -33.65926,45.98626 -39.2672,62.67053 -0.95826,2.85092 -2.03476,5.54032 -2.39249,5.97669 -0.35731,0.43635 -2.0085,-2.72818 -3.66833,-7.03227 z"
       style="opacity:1;fill:#cc0000;fill-opacity:1;fill-rule:nonzero;stroke:#640000;stroke-width:20;stroke-linecap:square;stroke-linejoin:round;stroke-miterlimit:4;stroke-dasharray:none;stroke-dashoffset:0;stroke-opacity:1" />
    <path
       sodipodi:nodetypes="csccc"
       inkscape:connector-curvature="0"
       id="path5038"
       d="m 713.13945,47.88702 c 22.55864,-6.094437 99.83061,61.11616 101.54204,69.06998 0.65292,3.03626 -2.43381,-64.376131 -11.62864,-69.444364 -9.38754,-18.811161 -44.9473,-26.24745 -51.33466,-24.425343 -11.98038,0.383674 -38.57874,24.799727 -38.57874,24.799727 z"
       style="fill:url(#linearGradient5050);fill-opacity:1;stroke:none;stroke-width:2.28813124px;stroke-linecap:butt;stroke-linejoin:miter;stroke-miterlimit:10;stroke-dasharray:none;stroke-dashoffset:0;stroke-opacity:1" />
    <path
       sodipodi:nodetypes="csccc"
       inkscape:connector-curvature="0"
       id="path5038-2"
       d="m 557.67776,37.71408 c 22.55861,-6.094414 94.71691,54.724137 96.42837,62.67796 0.65289,3.03625 -10.10435,-47.756759 -19.29915,-52.824969 C 625.41941,28.755887 589.85966,21.319621 583.4723,23.141728 571.49192,23.525379 557.67776,37.71408 557.67776,37.71408 Z"
       style="fill:url(#linearGradient5050-9);fill-opacity:1;stroke:none;stroke-width:2.28813124px;stroke-linecap:butt;stroke-linejoin:miter;stroke-miterlimit:10;stroke-dasharray:none;stroke-dashoffset:0;stroke-opacity:1" />
    <g
       id="g5087"
       style="stroke-width:1;stroke-linecap:square;stroke-linejoin:miter;stroke-miterlimit:10;stroke-dasharray:none;stroke-dashoffset:0"
       transform="matrix(8.2332539,0,0,8.2332539,-791.19056,-3298.2697)">
      <path
         style="fill:url(#radialGradient5089);fill-opacity:1;stroke:none;stroke-width:0.27791336px;stroke-linecap:butt;stroke-linejoin:miter;stroke-opacity:1"
         d="m 159.15304,411.56238 c 1.84849,-3.15824 3.18171,-4.0028 7.10166,-3.30043 l 10.89135,7.83004 c 0.0493,10.45485 6.00718,-23.41887 0.0412,31.85129 0.28765,-4.06349 -18.50996,-19.90086 -18.03429,-36.3809 z"
         id="path5076"
         inkscape:connector-curvature="0"
         sodipodi:nodetypes="cccccc" />
    </g>
  </g>
</svg>
